<svg width="26" height="29" viewBox="0 0 26 29" fill="none" xmlns="http://www.w3.org/2000/svg">
<path d="M0 3.69791C0 3.40783 0.115234 3.12963 0.320352 2.92452C0.52547 2.7194 0.80367 2.60416 1.09375 2.60416H1.9075C3.29292 2.60416 4.12417 3.53604 4.59812 4.40229C4.91458 4.97979 5.14354 5.64916 5.32292 6.25583L5.46875 6.25H23.695C24.9054 6.25 25.7804 7.40791 25.4479 8.57312L22.7821 17.9196C22.5431 18.7579 22.0374 19.4955 21.3417 20.0208C20.6459 20.546 19.798 20.8302 18.9263 20.8304H10.2521C9.37343 20.8305 8.51908 20.5419 7.82035 20.0092C7.12162 19.4764 6.61719 18.729 6.38458 17.8817L5.27625 13.8392L3.43875 7.64416L3.43729 7.6325C3.20979 6.80562 2.99687 6.03125 2.67896 5.45375C2.37417 4.89229 2.12917 4.79166 1.90896 4.79166H1.09375C0.80367 4.79166 0.52547 4.67643 0.320352 4.47131C0.115234 4.26619 0 3.98799 0 3.69791ZM7.39813 13.3083L8.49333 17.3027C8.71208 18.0931 9.43104 18.6429 10.2521 18.6429H18.9263C19.3225 18.6429 19.7079 18.5138 20.0242 18.2751C20.3405 18.0365 20.5704 17.7012 20.6792 17.3202L23.2123 8.4375H5.95729L7.37771 13.231L7.39813 13.3083ZM12.3958 25.2083C12.3958 25.9819 12.0885 26.7237 11.5416 27.2707C10.9946 27.8177 10.2527 28.125 9.47917 28.125C8.70562 28.125 7.96375 27.8177 7.41677 27.2707C6.86979 26.7237 6.5625 25.9819 6.5625 25.2083C6.5625 24.4348 6.86979 23.6929 7.41677 23.1459C7.96375 22.599 8.70562 22.2917 9.47917 22.2917C10.2527 22.2917 10.9946 22.599 11.5416 23.1459C12.0885 23.6929 12.3958 24.4348 12.3958 25.2083ZM10.2083 25.2083C10.2083 25.0149 10.1315 24.8295 9.99477 24.6927C9.85802 24.556 9.67255 24.4792 9.47917 24.4792C9.28578 24.4792 9.10031 24.556 8.96357 24.6927C8.82682 24.8295 8.75 25.0149 8.75 25.2083C8.75 25.4017 8.82682 25.5872 8.96357 25.7239C9.10031 25.8607 9.28578 25.9375 9.47917 25.9375C9.67255 25.9375 9.85802 25.8607 9.99477 25.7239C10.1315 25.5872 10.2083 25.4017 10.2083 25.2083ZM22.6042 25.2083C22.6042 25.9819 22.2969 26.7237 21.7499 27.2707C21.2029 27.8177 20.461 28.125 19.6875 28.125C18.914 28.125 18.1721 27.8177 17.6251 27.2707C17.0781 26.7237 16.7708 25.9819 16.7708 25.2083C16.7708 24.4348 17.0781 23.6929 17.6251 23.1459C18.1721 22.599 18.914 22.2917 19.6875 22.2917C20.461 22.2917 21.2029 22.599 21.7499 23.1459C22.2969 23.6929 22.6042 24.4348 22.6042 25.2083ZM20.4167 25.2083C20.4167 25.0149 20.3398 24.8295 20.2031 24.6927C20.0664 24.556 19.8809 24.4792 19.6875 24.4792C19.4941 24.4792 19.3086 24.556 19.1719 24.6927C19.0352 24.8295 18.9583 25.0149 18.9583 25.2083C18.9583 25.4017 19.0352 25.5872 19.1719 25.7239C19.3086 25.8607 19.4941 25.9375 19.6875 25.9375C19.8809 25.9375 20.0664 25.8607 20.2031 25.7239C20.3398 25.5872 20.4167 25.4017 20.4167 25.2083Z" fill="#333333"/>
<rect x="8.35449" y="0.5" width="13" height="14" rx="6.5" fill="#333333"/>
<path d="M12.0365 7.441C12.0365 6.17967 12.2418 5.197 12.6525 4.493C13.0632 3.78167 13.7818 3.426 14.8085 3.426C15.8278 3.426 16.5428 3.78167 16.9535 4.493C17.3642 5.197 17.5695 6.17967 17.5695 7.441C17.5695 8.72433 17.3642 9.72167 16.9535 10.433C16.5428 11.1443 15.8278 11.5 14.8085 11.5C13.7818 11.5 13.0632 11.1443 12.6525 10.433C12.2418 9.72167 12.0365 8.72433 12.0365 7.441ZM16.5795 7.441C16.5795 6.803 16.5355 6.264 16.4475 5.824C16.3668 5.37667 16.1945 5.01733 15.9305 4.746C15.6738 4.47467 15.2998 4.339 14.8085 4.339C14.3098 4.339 13.9285 4.47467 13.6645 4.746C13.4078 5.01733 13.2355 5.37667 13.1475 5.824C13.0668 6.264 13.0265 6.803 13.0265 7.441C13.0265 8.101 13.0668 8.65467 13.1475 9.102C13.2355 9.54933 13.4078 9.90867 13.6645 10.18C13.9285 10.4513 14.3098 10.587 14.8085 10.587C15.2998 10.587 15.6738 10.4513 15.9305 10.18C16.1945 9.90867 16.3668 9.54933 16.4475 9.102C16.5355 8.65467 16.5795 8.101 16.5795 7.441Z" fill="white"/>
</svg>
